<svg xmlns="http://www.w3.org/2000/svg"  viewBox="0 0 80 80" width="40px" height="40px" baseProfile="basic"><path fill="#b0c1d4" d="M74.01,62.5c-1.795,0-3.517-0.852-4.607-2.277L57.807,45.06L46.211,60.223 c-1.09,1.426-2.812,2.277-4.607,2.277h-3.428L54.66,40.944L38.261,19.5h3.428c1.795,0,3.518,0.851,4.607,2.276l11.51,15.052 l11.51-15.052c1.09-1.426,2.812-2.276,4.607-2.276h3.428L60.954,40.944L77.438,62.5H74.01z"/><path fill="#66798f" d="M76.341,20L60.324,40.944L76.426,62H74.01c-1.651,0-3.207-0.769-4.21-2.081L57.807,44.237 L45.814,59.919C44.811,61.231,43.254,62,41.604,62h-2.417l16.102-21.056L39.273,20h2.417c1.651,0,3.207,0.769,4.21,2.081 l11.907,15.571l11.907-15.571C70.717,20.769,72.273,20,73.924,20H76.341 M78.364,19h-2.024h-2.417c-1.949,0-3.82,0.925-5.005,2.473 L57.807,36.005L46.694,21.473C45.51,19.925,43.639,19,41.689,19h-2.417h-2.024l1.229,1.607L54.03,40.944L38.393,61.393L37.163,63 h2.024h2.417c1.949,0,3.82-0.925,5.005-2.473l11.198-14.644l11.198,14.644C70.189,62.075,72.06,63,74.01,63h2.417h2.024 l-1.229-1.607L61.583,40.944l15.552-20.337L78.364,19L78.364,19z"/><g><path fill="#b0c1d4" d="M20,64.5c-10.201,0-18.5-8.594-18.5-19.156v-8.689C1.5,26.093,9.799,17.5,20,17.5 s18.5,8.593,18.5,19.154v7.845L6.5,44.5v0.844C6.5,53.15,12.556,59.5,20,59.5c4.111,0,8.093-2.067,10.653-5.529 c1.161-1.571,2.86-2.472,4.661-2.472h1.711l0.204,0.204l0.134,0.268l-0.075,0.203C34.571,59.547,27.624,64.5,20,64.5z M33.5,39.5 v-2.846C33.5,28.85,27.444,22.5,20,22.5S6.5,28.85,6.5,36.655V39.5H33.5z"/><path fill="#66798f" d="M20,18c9.925,0,18,8.369,18,18.654v7.345L6,44v1.344C6,53.426,12.28,60,20,60 c4.376,0,8.446-2.203,11.055-5.732c1.016-1.374,2.55-2.269,4.259-2.269l1.505,0C36.819,52,36.819,52,36.819,52.001 C34.175,59.176,27.411,64,20,64c-9.925,0-18-8.369-18-18.656v-8.689C2,26.369,10.075,18,20,18 M6,40h28v-3.346 C34,28.574,27.72,22,20,22S6,28.574,6,36.654V40 M20,17C9.523,17,1,25.817,1,36.654v8.689C1,56.182,9.523,65,20,65 c7.832,0,14.968-5.085,17.758-12.653l0.496-1.346l-1.435-0.002l-1.505,0c-1.961,0-3.806,0.975-5.063,2.675 C27.785,57.009,23.953,59,20,59c-7.168,0-13-6.126-13-13.656V45l31-0.001l1,0v-1v-7.345C39,25.817,30.477,17,20,17L20,17z M7,39 v-2.346C7,29.125,12.832,23,20,23s13,6.125,13,13.654V39H7L7,39z"/></g></svg>